PathFileType	4	(X/Y/Z)	SUBJ59_3_walk_RCNL2025.trc
DataRate	CameraRate	NumFrames	NumMarkers	Units	OrigDataRate	OrigDataStartFrame	OrigNumFrames
100	100	12	25	mm	100	268	306
Frame#	Time	R_Shoulder			L_Shoulder			C7			J_Notch			R_Elbow			L_Elbow			R_Wrist			L_Wrist			R_Asis			L_Asis			Sacral			Thoracic			Sternum			R_Thigh_Lateral			R_Knee_Lateral			R_Shank_Lateral			R_Ankle_Lateral			R_Heel			R_Toe			L_Thigh_Lateral			L_Knee_Lateral			L_Shank_Lateral			L_Ankle_Lateral			L_Heel			L_Toe		
		X1	Y1	Z1	X2	Y2	Z2	X3	Y3	Z3	X4	Y4	Z4	X5	Y5	Z5	X6	Y6	Z6	X7	Y7	Z7	X8	Y8	Z8	X9	Y9	Z9	X10	Y10	Z10	X11	Y11	Z11	X12	Y12	Z12	X13	Y13	Z13	X14	Y14	Z14	X15	Y15	Z15	X16	Y16	Z16	X17	Y17	Z17	X18	Y18	Z18	X19	Y19	Z19	X20	Y20	Z20	X21	Y21	Z21	X22	Y22	Z22	X23	Y23	Z23	X24	Y24	Z24	X25	Y25	Z25
268	2.67000000	1797.072021	1412.226318	99.060280	1805.103027	1474.083252	-296.853149	1709.467896	1527.859741	-97.658981	1869.035156	1427.452881	-104.554787	1695.151733	1103.503784	171.098877	1826.959717	1148.160034	-431.766174	1685.634033	823.003143	169.923935	1978.756042	935.679321	-382.690338	1869.573364	974.318237	-7.965792	1858.184937	963.819336	-234.884277	1644.400635	994.185730	-110.360291	1639.463257	1314.848389	-130.800262	1920.625000	1233.941895	-124.489189	1896.399170	591.803406	81.966003	1916.000488	499.858673	25.742414	1942.865356	300.400299	97.808189	1922.506836	58.023811	-15.637843	1881.013184	48.037285	-60.791698	2081.748535	39.032871	-54.847031	1713.604004	582.753662	-322.658569	1694.726074	477.900848	-268.043060	1555.245117	335.740143	-318.828186	1404.144287	166.740845	-233.548462	1366.777100	182.997559	-174.923294	1480.923462	32.386642	-175.064423
269	2.68000000	1809.980469	1413.404541	100.217209	1817.008789	1475.886963	-295.059265	1721.236084	1529.095215	-95.846138	1880.866943	1428.885742	-103.310493	1709.770996	1104.218384	172.406754	1835.658325	1149.287964	-429.810333	1702.171692	823.767151	171.040573	1983.583008	933.526001	-382.152374	1881.512085	976.193237	-6.467107	1870.617676	965.254944	-233.407089	1656.555542	995.395447	-109.695465	1651.359741	1315.968506	-129.429535	1932.479980	1235.349365	-123.613747	1905.437134	591.884277	82.427071	1924.300903	499.923828	26.030083	1947.971680	299.822083	97.674988	1923.038574	58.288280	-16.074749	1881.207153	48.288898	-60.801144	2082.138916	38.309715	-55.430527	1735.464111	581.896790	-324.444550	1717.690674	477.292084	-269.970581	1575.430664	338.638855	-320.706818	1420.754761	174.530182	-234.750763	1384.736694	193.080978	-175.516129	1487.056030	34.408737	-176.255142
270	2.69000000	1822.778442	1414.614136	101.250610	1828.626953	1477.523438	-293.380676	1732.857422	1530.344360	-94.128983	1892.508789	1430.277466	-102.186836	1724.514282	1104.935181	173.773941	1844.350586	1150.303467	-427.901031	1719.140930	824.536041	172.224556	1988.149292	931.171783	-381.669876	1893.259521	977.855957	-5.027273	1882.825806	966.645630	-232.010376	1668.497559	996.548279	-109.018661	1663.068359	1317.115234	-128.026260	1944.164307	1236.726929	-122.837593	1913.831177	591.861389	82.780418	1931.810181	499.851959	26.274508	1951.881958	299.229004	97.512360	1923.434326	58.524250	-16.511993	1881.360107	48.499207	-60.912350	2082.402100	37.788582	-55.965073	1757.546387	581.196228	-326.053680	1741.019531	476.825500	-271.688202	1596.938965	340.965912	-322.498962	1438.686279	182.071121	-235.711426	1403.691895	202.490448	-175.977234	1496.030518	37.339890	-178.212494
271	2.70000000	1835.440918	1415.827148	102.155159	1839.942139	1478.989502	-291.866272	1744.356079	1531.618896	-92.513748	1903.976807	1431.636353	-101.177025	1739.358765	1105.636597	175.197021	1853.043457	1151.187744	-426.054077	1736.518616	825.292755	173.468285	1992.502991	928.646973	-381.253159	1904.828735	979.304016	-3.671591	1894.795898	968.004639	-230.728134	1680.233398	997.631348	-108.338409	1674.597168	1318.302856	-126.590797	1955.693481	1238.087158	-122.148407	1921.691772	591.792969	83.054718	1938.643311	499.686432	26.487865	1954.899048	298.687347	97.372261	1923.728149	58.730774	-16.927227	1881.489868	48.681942	-61.087753	2082.571289	37.410179	-56.436890	1779.501587	580.812683	-327.404541	1764.538330	476.643250	-273.190674	1619.483154	342.851135	-324.131958	1457.734863	189.305176	-236.373154	1423.478760	211.009460	-176.190247	1508.286499	41.053001	-181.011627
272	2.71000000	1847.946289	1417.035156	102.931267	1850.958130	1480.300659	-290.555237	1755.754395	1532.934692	-91.012405	1915.291870	1432.982910	-100.273636	1754.289795	1106.324585	176.666229	1861.732666	1151.937134	-424.272278	1754.272766	826.038208	174.758614	1996.676636	925.992706	-380.911530	1916.235229	980.556580	-2.411680	1906.532715	969.365417	-229.584930	1691.783813	998.651611	-107.660789	1685.963135	1319.536621	-125.128716	1967.082397	1239.448364	-121.526718	1929.111572	591.709473	83.280754	1944.925415	499.466736	26.681206	1957.357788	298.229156	97.276886	1923.942383	58.903633	-17.307814	1881.607666	48.848309	-61.296082	2082.678467	37.132027	-56.838242	1801.047119	580.892029	-328.473724	1788.119019	476.878418	-274.503021	1642.756714	344.492981	-325.530090	1477.765259	196.117889	-236.707840	1444.028809	218.435608	-176.071930	1523.974976	45.278378	-184.583817
273	2.72000000	1860.275635	1418.246216	103.586052	1861.693726	1481.484497	-289.471252	1767.070312	1534.304321	-89.640182	1926.476440	1434.340698	-99.469398	1769.298828	1107.017456	178.165161	1870.403198	1152.561523	-422.545837	1772.360535	826.786285	176.074883	2000.687988	923.259155	-380.653244	1927.492432	981.647949	-1.246557	1918.061401	970.768188	-228.590317	1703.178101	999.634033	-106.989891	1697.188354	1320.813477	-123.650482	1978.345215	1240.828491	-120.949234	1936.178101	591.630371	83.483269	1950.770630	499.224213	26.864506	1959.579834	297.851654	97.221046	1924.085571	59.033615	-17.651588	1881.718628	49.008602	-61.514713	2082.753174	36.925533	-57.166645	1822.003906	581.529358	-329.286346	1811.673096	477.624634	-275.668671	1666.470337	346.105988	-326.619568	1498.723267	202.322083	-236.730484	1465.333252	224.585709	-175.601913	1542.949341	49.673420	-188.703018
274	2.73000000	1872.412476	1419.480225	104.132858	1872.177490	1482.572510	-288.619873	1778.314331	1535.731934	-88.413040	1937.554443	1435.726807	-98.757896	1784.378906	1107.744263	179.672531	1879.033813	1153.080688	-420.859497	1790.741211	827.565948	177.396027	2004.543274	920.502319	-380.486008	1938.610229	982.620911	-0.166164	1929.433716	972.250854	-227.730804	1714.448730	1000.616699	-106.331833	1708.295776	1322.130371	-122.172157	1989.496460	1242.239136	-120.392776	1942.974976	591.571289	83.677986	1956.267944	498.977448	27.042183	1961.811523	297.535278	97.185814	1924.161255	59.113220	-17.964018	1881.821777	49.169292	-61.725857	2082.818848	36.770706	-57.423862	1842.308594	582.745605	-329.889465	1835.136841	478.915741	-276.733459	1690.383423	347.869324	-327.352783	1520.605957	207.681671	-236.501633	1487.396240	229.313690	-174.834717	1564.860352	53.899387	-193.034744
275	2.74000000	1884.344238	1420.763794	104.590660	1882.442871	1483.592407	-287.989716	1789.489624	1537.213013	-87.343788	1948.549561	1437.147339	-98.133972	1799.520386	1108.538330	181.165955	1887.598877	1153.520386	-419.199677	1809.396301	828.426910	178.711174	2008.240295	917.778442	-380.415985	1949.593750	983.520081	0.844321	1940.722534	973.843018	-226.968399	1725.626709	1001.640137	-105.699173	1719.303955	1323.482666	-120.715729	2000.550049	1243.680786	-119.836937	1949.568237	591.539673	83.869568	1961.480347	498.732483	27.209356	1964.189697	297.258331	97.148972	1924.179810	59.145622	-18.250992	1881.912842	49.331764	-61.915421	2082.888428	36.650543	-57.616219	1861.999146	584.486572	-330.325867	1858.455566	480.723846	-277.731445	1714.327271	349.880554	-327.736694	1543.415771	211.959839	-236.114410	1510.204590	232.528214	-173.891708	1589.294189	57.679638	-197.224686
276	2.75000000	1896.064941	1422.123901	104.982689	1892.524658	1484.563599	-287.556366	1800.594238	1538.731445	-86.439087	1959.481934	1438.594482	-97.593765	1814.707397	1109.431396	182.626190	1896.069458	1153.905273	-417.557953	1828.325195	829.433685	180.019897	2011.771912	915.136536	-380.445892	1960.445923	984.386292	1.801032	1951.997192	975.557312	-226.250702	1736.737915	1002.732422	-105.112785	1730.228882	1324.857910	-119.307449	2011.517944	1245.143066	-119.265198	1955.999878	591.533997	84.052429	1966.450073	498.488312	27.352083	1966.748047	296.999298	97.086525	1924.160889	59.146431	-18.513920	1881.986816	49.494774	-62.075520	2082.966553	36.549583	-57.755356	1881.176880	586.643555	-330.622162	1881.574585	482.973480	-278.674957	1738.213623	352.127686	-327.837463	1567.129517	214.964111	-235.671661	1533.722656	234.194916	-172.930466	1615.879761	60.827011	-200.978546
277	2.76000000	1907.576050	1423.581787	105.333694	1902.458984	1485.494873	-287.287262	1811.624634	1540.260986	-85.698288	1970.365234	1440.049805	-97.134262	1829.917725	1110.447388	184.039368	1904.415283	1154.252686	-415.932983	1847.525452	830.646759	181.323212	2015.130249	912.613129	-380.574677	1971.169800	985.251892	2.718980	1963.299561	977.382629	-225.527130	1747.799072	1003.901428	-104.600502	1741.087280	1326.233398	-117.974174	2022.409424	1246.606323	-118.665642	1962.293823	591.551453	84.215431	1971.201904	498.243011	27.450981	1969.448364	296.739716	96.973198	1924.128174	59.138985	-18.750601	1882.039429	49.657898	-62.205086	2083.052979	36.456814	-57.856689	1899.960083	589.086853	-330.790466	1904.436035	485.564026	-279.553345	1762.022217	354.492798	-327.755554	1591.697876	216.570145	-235.262451	1557.905640	234.322266	-172.099609	1644.324097	63.236698	-204.098969
278	2.77000000	1918.887207	1425.147583	105.666718	1912.281372	1486.383301	-287.147003	1822.579102	1541.772217	-85.112991	1981.204834	1441.489624	-96.752220	1845.124023	1111.598389	185.397308	1912.605835	1154.569458	-414.332367	1866.979675	832.106842	182.617203	2018.310242	910.230621	-380.797821	1981.769043	986.137695	3.610670	1974.641968	979.288452	-224.763885	1758.816650	1005.136047	-104.192757	1751.896240	1327.576538	-116.739517	2033.230103	1248.045044	-118.031990	1968.462891	591.591797	84.345818	1975.746826	497.997467	27.487272	1972.215210	296.470734	96.789642	1924.101929	59.146095	-18.960009	1882.069580	49.823795	-62.308506	2083.145996	36.367435	-57.935371	1918.447510	591.694092	-330.835632	1926.976929	488.391388	-280.339508	1785.769287	356.788055	-327.590546	1617.065308	216.723236	-234.945175	1582.718750	232.944122	-171.501221	1674.397949	64.861710	-206.485397
279	2.78000000	1930.015869	1426.817261	106.000816	1922.025635	1487.215942	-287.102173	1833.459961	1543.240723	-84.666985	1991.998535	1442.889526	-96.443207	1860.298096	1112.882324	186.698151	1920.611938	1154.850708	-412.772552	1886.656372	833.830109	183.893051	2021.310974	907.997498	-381.107193	1992.247681	987.051758	4.486106	1986.018066	981.234070	-223.949310	1769.787964	1006.410339	-103.918106	1762.672363	1328.847412	-115.620651	2043.983643	1249.432129	-117.364052	1974.508667	591.654724	84.430832	1980.088013	497.756744	27.449354	1974.961304	296.195587	96.530968	1924.094482	59.182270	-19.146919	1882.081299	49.997375	-62.397087	2083.243164	36.281158	-58.002579	1936.703979	594.365479	-330.761810	1949.130981	491.363037	-280.996918	1809.471436	358.809601	-327.415253	1643.189331	215.427444	-234.741806	1608.151733	230.109314	-171.175797	1705.910645	65.695328	-208.123413
